<svg xmlns="http://www.w3.org/2000/svg" viewBox="0 0 240 240">
  <rect width="240" height="240" fill="none"/>
  <ellipse cx="126" cy="214" rx="58" ry="12" fill="#1f2937" opacity=".16"/>
  <path d="M71 126c0-42 28-75 62-75 36 0 61 31 56 74-5 47-36 75-72 71-34-4-51-31-46-70Z" fill="#f4b86b"/>
  <path d="M96 64 85 31c22 5 34 18 39 32Zm77 11 18-30c19 12 27 28 25 45Z" fill="#f4b86b"/>
  <circle cx="111" cy="112" r="9" fill="#1f2937"/>
  <circle cx="153" cy="117" r="9" fill="#1f2937"/>
  <path d="M119 148c7 8 20 10 29 3" fill="none" stroke="#1f2937" stroke-width="7" stroke-linecap="round"/>
  <circle cx="89" cy="135" r="11" fill="#ff8aa8" opacity=".7"/>
  <circle cx="174" cy="141" r="11" fill="#ff8aa8" opacity=".7"/>
  <path d="M85 177c-16 4-29-1-39-15" fill="none" stroke="#f4b86b" stroke-width="14" stroke-linecap="round"/>
  <path d="M177 174c17 1 30-7 38-22" fill="none" stroke="#f4b86b" stroke-width="14" stroke-linecap="round"/>
  <path d="M43 96h36m-24-21 24 21-24 21" fill="none" stroke="#3b82f6" stroke-width="8" stroke-linecap="round" stroke-linejoin="round"/>
</svg>
